<svg width="914" height="400" fill="none" xmlns="http://www.w3.org/2000/svg"><style>#CL0 {fill: #0065FF;}#CL1 {fill: #4D4D4D;}@media (prefers-color-scheme: dark) {#CL0 {fill: #0065FF;}#CL1 {fill: #AAA;}}</style><path d="M328.289 211h-3.441l-1.7-4.812h-7.436L314.077 211h-3.428l7.08-18.905h3.533L328.289 211Zm-5.972-7.37-2.624-7.541c-.079-.246-.162-.641-.25-1.186h-.053a7.788 7.788 0 0 1-.263 1.186l-2.598 7.541h5.788Zm14.371 7.225c-.598.299-1.385.448-2.36.448-2.619 0-3.929-1.257-3.929-3.77v-7.634h-2.254V197.5h2.254v-3.125l3.059-.87v3.995h3.23v2.399h-3.23v6.75c0 .8.145 1.372.435 1.714.29.343.773.514 1.45.514.518 0 .967-.149 1.345-.448v2.426Zm5.168.145h-3.072v-19.986h3.072V211Zm13.817 0h-2.966v-2.109h-.053c-.932 1.617-2.298 2.425-4.1 2.425-1.327 0-2.369-.36-3.125-1.081-.747-.72-1.12-1.674-1.12-2.86 0-2.549 1.468-4.035 4.403-4.457l4.008-.566c0-1.925-.914-2.888-2.742-2.888-1.609 0-3.059.554-4.351 1.661v-2.676c1.424-.844 3.068-1.265 4.931-1.265 3.41 0 5.115 1.678 5.115 5.036V211Zm-2.953-6.631-2.835.395c-.878.114-1.542.33-1.99.646-.44.308-.659.853-.659 1.635 0 .571.202 1.041.606 1.411.413.36.962.54 1.648.54.932 0 1.701-.325 2.307-.975.615-.66.923-1.486.923-2.479v-1.173Zm5.313 6.209v-2.834c1.143.87 2.404 1.305 3.784 1.305 1.846 0 2.769-.545 2.769-1.635 0-.308-.079-.567-.238-.778a2.192 2.192 0 0 0-.646-.58 4.772 4.772 0 0 0-.949-.448c-.36-.132-.765-.281-1.213-.448a13.576 13.576 0 0 1-1.503-.699 4.797 4.797 0 0 1-1.107-.831 3.27 3.27 0 0 1-.659-1.068c-.15-.395-.224-.856-.224-1.384 0-.65.153-1.221.461-1.714a3.927 3.927 0 0 1 1.239-1.252 5.73 5.73 0 0 1 1.767-.765 7.883 7.883 0 0 1 2.043-.263c1.248 0 2.365.189 3.349.566v2.677c-.949-.651-2.039-.976-3.27-.976-.386 0-.738.04-1.054.119a2.713 2.713 0 0 0-.791.329 1.59 1.59 0 0 0-.514.515 1.177 1.177 0 0 0-.185.646c0 .29.062.536.185.738.123.202.303.382.54.54.246.15.536.29.87.422.343.123.734.26 1.174.409.58.237 1.098.479 1.555.725.466.246.862.527 1.187.844.325.307.575.668.751 1.081.176.404.264.888.264 1.45 0 .686-.158 1.283-.475 1.793-.316.51-.738.932-1.265 1.266a5.814 5.814 0 0 1-1.833.738 9.163 9.163 0 0 1-2.175.25c-1.477 0-2.756-.246-3.837-.738Zm11.115 0v-2.834c1.142.87 2.404 1.305 3.783 1.305 1.846 0 2.769-.545 2.769-1.635a1.26 1.26 0 0 0-.237-.778 2.218 2.218 0 0 0-.646-.58 4.782 4.782 0 0 0-.95-.448c-.36-.132-.764-.281-1.212-.448a13.407 13.407 0 0 1-1.503-.699 4.782 4.782 0 0 1-1.108-.831 3.27 3.27 0 0 1-.659-1.068c-.149-.395-.224-.856-.224-1.384 0-.65.154-1.221.461-1.714a3.92 3.92 0 0 1 1.24-1.252 5.713 5.713 0 0 1 1.766-.765 7.89 7.89 0 0 1 2.044-.263c1.248 0 2.364.189 3.348.566v2.677c-.949-.651-2.039-.976-3.269-.976-.387 0-.739.04-1.055.119a2.725 2.725 0 0 0-.791.329 1.59 1.59 0 0 0-.514.515 1.177 1.177 0 0 0-.185.646c0 .29.062.536.185.738.123.202.303.382.54.54.246.15.537.29.871.422.342.123.733.26 1.173.409.58.237 1.098.479 1.556.725a5.1 5.1 0 0 1 1.186.844c.325.307.576.668.752 1.081.175.404.263.888.263 1.45 0 .686-.158 1.283-.474 1.793-.317.51-.739.932-1.266 1.266a5.794 5.794 0 0 1-1.833.738c-.685.167-1.41.25-2.175.25-1.476 0-2.755-.246-3.836-.738Zm13.5-15.912c-.501 0-.931-.163-1.292-.488-.351-.325-.527-.739-.527-1.24 0-.5.176-.918.527-1.252a1.836 1.836 0 0 1 1.292-.501c.519 0 .958.167 1.319.501.36.334.54.752.54 1.252 0 .475-.18.884-.54 1.227a1.87 1.87 0 0 1-1.319.501ZM384.164 211h-3.058v-13.5h3.058V211Zm13.83 0h-2.966v-2.109h-.053c-.931 1.617-2.298 2.425-4.1 2.425-1.327 0-2.368-.36-3.124-1.081-.747-.72-1.121-1.674-1.121-2.86 0-2.549 1.468-4.035 4.404-4.457l4.007-.566c0-1.925-.914-2.888-2.742-2.888-1.608 0-3.058.554-4.35 1.661v-2.676c1.423-.844 3.067-1.265 4.93-1.265 3.41 0 5.115 1.678 5.115 5.036V211Zm-2.953-6.631-2.834.395c-.879.114-1.543.33-1.991.646-.439.308-.659.853-.659 1.635 0 .571.202 1.041.606 1.411.414.36.963.54 1.648.54.932 0 1.701-.325 2.307-.975.616-.66.923-1.486.923-2.479v-1.173ZM413.222 211h-3.059v-7.607c0-2.522-.892-3.784-2.676-3.784-.931 0-1.701.352-2.307 1.055-.606.694-.91 1.573-.91 2.637V211h-3.071v-13.5h3.071v2.241h.053c1.011-1.705 2.47-2.557 4.377-2.557 1.468 0 2.588.479 3.362 1.437.773.949 1.16 2.324 1.16 4.126V211Zm23.626-.791c-1.424.738-3.195 1.107-5.313 1.107-2.742 0-4.939-.865-6.592-2.597-1.652-1.731-2.478-4.003-2.478-6.816 0-3.023.927-5.466 2.782-7.33 1.863-1.863 4.214-2.795 7.053-2.795 1.828 0 3.344.26 4.548.778v3.111c-1.274-.755-2.681-1.133-4.219-1.133-2.047 0-3.709.654-4.983 1.964-1.266 1.31-1.898 3.059-1.898 5.247 0 2.083.593 3.744 1.779 4.984 1.187 1.23 2.747 1.845 4.68 1.845 1.785 0 3.332-.422 4.641-1.265v2.9Zm5.775.791h-3.072v-19.986h3.072V211Zm9.44.316c-2.083 0-3.748-.628-4.997-1.885-1.239-1.265-1.858-2.94-1.858-5.023 0-2.267.646-4.038 1.938-5.313 1.3-1.274 3.049-1.911 5.247-1.911 2.109 0 3.753.619 4.93 1.858 1.178 1.24 1.767 2.958 1.767 5.155 0 2.154-.637 3.881-1.912 5.181-1.265 1.292-2.97 1.938-5.115 1.938Zm.145-11.693c-1.195 0-2.14.417-2.834 1.252-.695.835-1.042 1.986-1.042 3.454 0 1.415.352 2.531 1.055 3.349.703.808 1.643 1.213 2.821 1.213 1.204 0 2.127-.4 2.769-1.2.65-.8.975-1.938.975-3.415 0-1.485-.325-2.632-.975-3.441-.642-.808-1.565-1.212-2.769-1.212ZM473.447 211h-3.058v-2.136h-.053c-.888 1.635-2.268 2.452-4.14 2.452-3.19 0-4.785-1.916-4.785-5.748V197.5h3.058v7.752c0 2.426.936 3.639 2.808 3.639.906 0 1.648-.334 2.228-1.002.589-.668.884-1.543.884-2.624V197.5h3.058V211Zm15.729 0h-3.059v-2.294h-.052c-.985 1.74-2.501 2.61-4.549 2.61-1.661 0-2.992-.602-3.994-1.806-.994-1.213-1.49-2.861-1.49-4.944 0-2.232.549-4.021 1.648-5.365 1.107-1.345 2.579-2.017 4.416-2.017 1.82 0 3.142.729 3.969 2.188h.052v-8.358h3.059V211Zm-3.019-6.17v-1.767c0-.958-.312-1.771-.936-2.438-.624-.668-1.42-1.002-2.386-1.002-1.143 0-2.044.426-2.703 1.278-.65.853-.976 2.035-.976 3.547 0 1.371.312 2.456.936 3.256.633.791 1.481 1.187 2.545 1.187 1.046 0 1.894-.383 2.544-1.147.651-.774.976-1.745.976-2.914Z" id="CL0"/><path d="M500.04 211v-18.905h5.379c1.635 0 2.931.4 3.889 1.199.958.8 1.437 1.842 1.437 3.125 0 1.072-.29 2.004-.87 2.795-.58.791-1.38 1.353-2.399 1.687v.053c1.274.15 2.294.633 3.058 1.45.765.809 1.147 1.864 1.147 3.164 0 1.618-.58 2.927-1.74 3.929-1.16 1.002-2.623 1.503-4.39 1.503h-5.511Zm2.215-16.901v6.104h2.268c1.213 0 2.166-.29 2.86-.87.695-.589 1.042-1.416 1.042-2.479 0-1.837-1.209-2.755-3.626-2.755h-2.544Zm0 8.094v6.803h3.006c1.301 0 2.307-.308 3.019-.923.721-.615 1.081-1.459 1.081-2.531 0-2.232-1.52-3.349-4.562-3.349h-2.544ZM524.351 211h-2.162v-2.109h-.053c-.94 1.617-2.324 2.425-4.152 2.425-1.345 0-2.4-.356-3.164-1.067-.756-.712-1.134-1.657-1.134-2.835 0-2.522 1.485-3.99 4.456-4.403l4.047-.567c0-2.294-.927-3.441-2.782-3.441-1.626 0-3.093.554-4.403 1.661v-2.215c1.327-.844 2.857-1.265 4.588-1.265 3.173 0 4.759 1.678 4.759 5.036V211Zm-2.162-6.829-3.256.448c-1.002.141-1.758.391-2.268.752-.509.351-.764.98-.764 1.885 0 .659.233 1.2.698 1.621.475.414 1.103.62 1.886.62 1.072 0 1.955-.373 2.65-1.121.703-.755 1.054-1.709 1.054-2.86v-1.345Zm14.898 6.209c-1.037.624-2.267.936-3.691.936-1.925 0-3.481-.624-4.667-1.872-1.178-1.256-1.767-2.882-1.767-4.878 0-2.223.637-4.007 1.912-5.352 1.274-1.354 2.975-2.03 5.102-2.03 1.186 0 2.232.219 3.138.659v2.215c-1.002-.704-2.075-1.055-3.217-1.055-1.38 0-2.514.497-3.402 1.49-.879.984-1.318 2.28-1.318 3.889 0 1.582.413 2.83 1.239 3.744.835.914 1.951 1.371 3.349 1.371 1.178 0 2.285-.391 3.322-1.173v2.056Zm13.936.62h-3.032l-5.959-6.486h-.053V211h-2.162v-19.986h2.162v12.669h.053l5.669-6.183h2.834l-6.262 6.513 6.75 6.987Zm12.591 0h-2.162v-2.136h-.053c-.897 1.635-2.285 2.452-4.166 2.452-3.217 0-4.825-1.916-4.825-5.748V197.5h2.149v7.726c0 2.847 1.089 4.271 3.269 4.271 1.055 0 1.92-.387 2.597-1.16.686-.782 1.029-1.802 1.029-3.059V197.5h2.162V211Zm6.051-1.951h-.052v8.16h-2.162V197.5h2.162v2.373h.052c1.064-1.793 2.62-2.689 4.667-2.689 1.741 0 3.099.606 4.074 1.819.976 1.204 1.464 2.821 1.464 4.851 0 2.259-.55 4.07-1.648 5.432-1.099 1.354-2.602 2.03-4.509 2.03-1.749 0-3.098-.755-4.048-2.267Zm-.052-5.445v1.885c0 1.116.36 2.066 1.081 2.848.729.773 1.652 1.16 2.768 1.16 1.31 0 2.334-.501 3.072-1.503.747-1.002 1.121-2.395 1.121-4.179 0-1.503-.348-2.681-1.042-3.533-.694-.853-1.635-1.279-2.821-1.279-1.257 0-2.268.439-3.032 1.318-.765.87-1.147 1.965-1.147 3.283Zm24.021 1.187h-9.532c.035 1.502.439 2.663 1.213 3.48.773.817 1.837 1.226 3.19 1.226 1.521 0 2.918-.501 4.193-1.503v2.03c-1.187.862-2.756 1.292-4.707 1.292-1.907 0-3.406-.61-4.495-1.832-1.09-1.231-1.635-2.958-1.635-5.181 0-2.101.593-3.81 1.78-5.129 1.195-1.327 2.676-1.99 4.442-1.99 1.767 0 3.134.571 4.101 1.713.966 1.143 1.45 2.729 1.45 4.76v1.134Zm-2.215-1.833c-.009-1.248-.312-2.219-.91-2.914-.589-.694-1.41-1.041-2.465-1.041-1.02 0-1.885.365-2.597 1.094-.712.73-1.152 1.683-1.319 2.861h7.291Zm11.998-3.27c-.378-.29-.923-.435-1.635-.435-.923 0-1.697.435-2.321 1.306-.615.87-.922 2.056-.922 3.559V211h-2.163v-13.5h2.163v2.782h.052c.308-.949.778-1.688 1.411-2.215.633-.536 1.34-.804 2.123-.804.562 0 .993.061 1.292.184v2.241Z" id="CL1"/></svg>